<svg width="200" height="48" viewBox="0 0 200 48" fill="none" xmlns="http://www.w3.org/2000/svg">
  <rect width="200" height="48" rx="3" fill="url(#paint0_linear)"/>
  <path d="M57.2734 26.3516H52.8672L51.9453 29H49.8906L54.1875 17.625H55.9609L60.2656 29H58.2031L57.2734 26.3516ZM53.4219 24.7578H56.7188L55.0703 20.0391L53.4219 24.7578ZM61.0234 24.7109C61.0234 23.4089 61.3255 22.3646 61.9297 21.5781C62.5339 20.7865 63.3438 20.3906 64.3594 20.3906C65.2552 20.3906 65.9792 20.7031 66.5312 21.3281V17H68.4297V29H66.7109L66.6172 28.125C66.0495 28.8125 65.2917 29.1562 64.3438 29.1562C63.3542 29.1562 62.5521 28.7578 61.9375 27.9609C61.3281 27.1641 61.0234 26.0807 61.0234 24.7109ZM62.9219 24.875C62.9219 25.7344 63.0859 26.4062 63.4141 26.8906C63.7474 27.3698 64.2188 27.6094 64.8281 27.6094C65.6042 27.6094 66.1719 27.263 66.5312 26.5703V22.9609C66.1823 22.2839 65.6198 21.9453 64.8438 21.9453C64.2292 21.9453 63.7552 22.1901 63.4219 22.6797C63.0885 23.1641 62.9219 23.8958 62.9219 24.875ZM70.0547 24.7109C70.0547 23.4089 70.3568 22.3646 70.9609 21.5781C71.5651 20.7865 72.375 20.3906 73.3906 20.3906C74.2865 20.3906 75.0104 20.7031 75.5625 21.3281V17H77.4609V29H75.7422L75.6484 28.125C75.0807 28.8125 74.3229 29.1562 73.375 29.1562C72.3854 29.1562 71.5833 28.7578 70.9688 27.9609C70.3594 27.1641 70.0547 26.0807 70.0547 24.7109ZM71.9531 24.875C71.9531 25.7344 72.1172 26.4062 72.4453 26.8906C72.7786 27.3698 73.25 27.6094 73.8594 27.6094C74.6354 27.6094 75.2031 27.263 75.5625 26.5703V22.9609C75.2135 22.2839 74.651 21.9453 73.875 21.9453C73.2604 21.9453 72.7865 22.1901 72.4531 22.6797C72.1198 23.1641 71.9531 23.8958 71.9531 24.875ZM85.8047 18.4922V20.5469H87.2969V21.9531H85.8047V26.6719C85.8047 26.9948 85.8672 27.2292 85.9922 27.375C86.1224 27.5156 86.3516 27.5859 86.6797 27.5859C86.8984 27.5859 87.1198 27.5599 87.3438 27.5078V28.9766C86.9115 29.0964 86.4948 29.1562 86.0938 29.1562C84.6354 29.1562 83.9062 28.3516 83.9062 26.7422V21.9531H82.5156V20.5469H83.9062V18.4922H85.8047ZM88.1641 24.6953C88.1641 23.8672 88.3281 23.1224 88.6562 22.4609C88.9844 21.7943 89.4453 21.2839 90.0391 20.9297C90.6328 20.5703 91.3151 20.3906 92.0859 20.3906C93.2266 20.3906 94.151 20.7578 94.8594 21.4922C95.5729 22.2266 95.9583 23.2005 96.0156 24.4141L96.0234 24.8594C96.0234 25.6927 95.862 26.4375 95.5391 27.0938C95.2214 27.75 94.763 28.2578 94.1641 28.6172C93.5703 28.9766 92.8828 29.1562 92.1016 29.1562C90.9089 29.1562 89.9531 28.7604 89.2344 27.9688C88.5208 27.1719 88.1641 26.112 88.1641 24.7891V24.6953ZM90.0625 24.8594C90.0625 25.7292 90.2422 26.4115 90.6016 26.9062C90.9609 27.3958 91.4609 27.6406 92.1016 27.6406C92.7422 27.6406 93.2396 27.3906 93.5938 26.8906C93.9531 26.3906 94.1328 25.6589 94.1328 24.6953C94.1328 23.8411 93.9479 23.1641 93.5781 22.6641C93.2135 22.1641 92.7161 21.9141 92.0859 21.9141C91.4661 21.9141 90.974 22.1615 90.6094 22.6562C90.2448 23.1458 90.0625 23.8802 90.0625 24.8594ZM108.352 24.1797H103.773V29H101.797V17.625H109.023V19.2188H103.773V22.6016H108.352V24.1797ZM112.43 29H110.531V20.5469H112.43V29ZM110.414 18.3516C110.414 18.0599 110.505 17.8177 110.688 17.625C110.875 17.4323 111.141 17.3359 111.484 17.3359C111.828 17.3359 112.094 17.4323 112.281 17.625C112.469 17.8177 112.562 18.0599 112.562 18.3516C112.562 18.638 112.469 18.8776 112.281 19.0703C112.094 19.2578 111.828 19.3516 111.484 19.3516C111.141 19.3516 110.875 19.2578 110.688 19.0703C110.505 18.8776 110.414 18.638 110.414 18.3516ZM118.93 22.2812C118.68 22.2396 118.422 22.2188 118.156 22.2188C117.286 22.2188 116.701 22.5521 116.398 23.2188V29H114.5V20.5469H116.312L116.359 21.4922C116.818 20.7578 117.453 20.3906 118.266 20.3906C118.536 20.3906 118.76 20.4271 118.938 20.5L118.93 22.2812ZM123.695 29.1562C122.492 29.1562 121.516 28.7786 120.766 28.0234C120.021 27.263 119.648 26.2526 119.648 24.9922V24.7578C119.648 23.9141 119.81 23.1615 120.133 22.5C120.461 21.8333 120.919 21.3151 121.508 20.9453C122.096 20.5755 122.753 20.3906 123.477 20.3906C124.628 20.3906 125.516 20.7578 126.141 21.4922C126.771 22.2266 127.086 23.2656 127.086 24.6094V25.375H121.562C121.62 26.0729 121.852 26.625 122.258 27.0312C122.669 27.4375 123.185 27.6406 123.805 27.6406C124.674 27.6406 125.383 27.2891 125.93 26.5859L126.953 27.5625C126.615 28.0677 126.161 28.4609 125.594 28.7422C125.031 29.0182 124.398 29.1562 123.695 29.1562ZM123.469 21.9141C122.948 21.9141 122.526 22.0964 122.203 22.4609C121.885 22.8255 121.682 23.3333 121.594 23.9844H125.211V23.8438C125.169 23.2083 125 22.7292 124.703 22.4062C124.406 22.0781 123.995 21.9141 123.469 21.9141ZM129.234 29V21.9531H127.945V20.5469H129.234V19.7734C129.234 18.8359 129.495 18.112 130.016 17.6016C130.536 17.0911 131.266 16.8359 132.203 16.8359C132.536 16.8359 132.891 16.8828 133.266 16.9766L133.219 18.4609C133.01 18.4193 132.768 18.3984 132.492 18.3984C131.586 18.3984 131.133 18.8646 131.133 19.7969V20.5469H132.852V21.9531H131.133V29H129.234ZM133.883 24.6953C133.883 23.8672 134.047 23.1224 134.375 22.4609C134.703 21.7943 135.164 21.2839 135.758 20.9297C136.352 20.5703 137.034 20.3906 137.805 20.3906C138.945 20.3906 139.87 20.7578 140.578 21.4922C141.292 22.2266 141.677 23.2005 141.734 24.4141L141.742 24.8594C141.742 25.6927 141.581 26.4375 141.258 27.0938C140.94 27.75 140.482 28.2578 139.883 28.6172C139.289 28.9766 138.602 29.1562 137.82 29.1562C136.628 29.1562 135.672 28.7604 134.953 27.9688C134.24 27.1719 133.883 26.112 133.883 24.7891V24.6953ZM135.781 24.8594C135.781 25.7292 135.961 26.4115 136.32 26.9062C136.68 27.3958 137.18 27.6406 137.82 27.6406C138.461 27.6406 138.958 27.3906 139.312 26.8906C139.672 26.3906 139.852 25.6589 139.852 24.6953C139.852 23.8411 139.667 23.1641 139.297 22.6641C138.932 22.1641 138.435 21.9141 137.805 21.9141C137.185 21.9141 136.693 22.1615 136.328 22.6562C135.964 23.1458 135.781 23.8802 135.781 24.8594ZM146.211 23.3281L147.82 20.5469H149.93L147.344 24.7109L150.016 29H147.922L146.234 26.1094L144.555 29H142.445L145.117 24.7109L142.539 20.5469H144.633L146.211 23.3281Z" fill="white"/>
  <defs>
    <linearGradient id="paint0_linear" x1="100" y1="0" x2="100" y2="48" gradientUnits="userSpaceOnUse">
      <stop stop-color="#FFBD30"/>
      <stop offset="1" stop-color="#FF3C44"/>
    </linearGradient>
  </defs>
</svg>
