<svg xmlns="http://www.w3.org/2000/svg" width="200" height="48" fill="none">
  <rect width="200" height="48" fill="#1A73E8" rx="3"/>
  <path fill="#fff" d="M53.922 26.352h-4.406L48.594 29h-2.055l4.297-11.375h1.773L56.914 29h-2.062l-.93-2.648zm-3.852-1.594h3.297l-1.648-4.719-1.649 4.719zm7.602-.047c0-1.302.302-2.346.906-3.133.604-.791 1.414-1.187 2.43-1.187.896 0 1.62.312 2.172.937V17h1.898v12H63.36l-.093-.875c-.568.688-1.326 1.031-2.274 1.031-.99 0-1.791-.398-2.406-1.195-.61-.797-.914-1.88-.914-3.25zm1.898.164c0 .86.164 1.531.492 2.016.334.479.805.718 1.415.718.776 0 1.343-.346 1.703-1.039v-3.61c-.35-.676-.912-1.015-1.688-1.015-.614 0-1.088.245-1.422.735-.333.484-.5 1.216-.5 2.195zm7.133-.164c0-1.302.302-2.346.906-3.133.605-.791 1.414-1.187 2.43-1.187.896 0 1.62.312 2.172.937V17h1.898v12h-1.718l-.094-.875c-.568.688-1.326 1.031-2.274 1.031-.99 0-1.791-.398-2.406-1.195-.61-.797-.914-1.88-.914-3.25zm1.899.164c0 .86.164 1.531.492 2.016.333.479.804.718 1.414.718.776 0 1.344-.346 1.703-1.039v-3.61c-.349-.676-.912-1.015-1.688-1.015-.614 0-1.088.245-1.421.735-.334.484-.5 1.216-.5 2.195zm13.851-6.383v2.055h1.492v1.406h-1.492v4.719c0 .323.063.557.188.703.13.14.359.21.687.21.219 0 .44-.025.664-.077v1.469c-.432.12-.849.18-1.25.18-1.458 0-2.187-.805-2.187-2.415v-4.789h-1.39v-1.406h1.39v-2.055h1.898zm2.36 6.203c0-.828.164-1.573.492-2.234.328-.667.789-1.177 1.382-1.531.594-.36 1.276-.54 2.047-.54 1.141 0 2.066.368 2.774 1.102.713.735 1.099 1.709 1.156 2.922l.008.445c0 .834-.162 1.578-.484 2.235a3.52 3.52 0 01-1.376 1.523c-.593.36-1.28.54-2.062.54-1.193 0-2.148-.397-2.867-1.188-.714-.797-1.07-1.857-1.07-3.18v-.094zm1.898.164c0 .87.18 1.552.539 2.047.36.49.86.735 1.5.735s1.138-.25 1.492-.75c.36-.5.54-1.232.54-2.196 0-.854-.186-1.53-.555-2.03-.365-.5-.862-.75-1.493-.75-.62 0-1.112.247-1.476.741-.365.49-.547 1.224-.547 2.203zm20.414.438c-.115 1.213-.563 2.161-1.344 2.844-.781.677-1.82 1.015-3.117 1.015-.906 0-1.706-.213-2.398-.64-.688-.433-1.22-1.045-1.594-1.836-.375-.792-.57-1.711-.586-2.758v-1.063c0-1.073.19-2.018.57-2.836.38-.817.925-1.447 1.633-1.89.714-.443 1.537-.664 2.469-.664 1.255 0 2.265.34 3.031 1.023.766.682 1.211 1.646 1.336 2.89h-1.969c-.094-.817-.333-1.405-.718-1.765-.381-.364-.941-.547-1.68-.547-.86 0-1.521.315-1.985.946-.458.625-.692 1.544-.703 2.757v1.008c0 1.23.219 2.167.657 2.813.442.646 1.088.968 1.937.968.776 0 1.359-.174 1.75-.523.391-.349.638-.93.742-1.742h1.969zm3.461-3.828c.62-.719 1.404-1.078 2.352-1.078 1.802 0 2.716 1.028 2.742 3.086V29h-1.899v-5.453c0-.584-.127-.995-.383-1.235-.25-.244-.619-.367-1.109-.367-.76 0-1.328.339-1.703 1.016V29h-1.898V17h1.898v4.469zm11.445.812a4.705 4.705 0 00-.773-.062c-.87 0-1.456.333-1.758 1V29h-1.898v-8.453h1.812l.047.945c.458-.734 1.094-1.101 1.906-1.101.271 0 .495.036.672.109l-.008 1.781zm.563 2.414c0-.828.164-1.573.492-2.234.328-.667.789-1.177 1.383-1.531.593-.36 1.276-.54 2.047-.54 1.14 0 2.065.368 2.773 1.102.714.735 1.099 1.709 1.156 2.922l.008.445c0 .834-.161 1.578-.484 2.235a3.521 3.521 0 01-1.375 1.523c-.594.36-1.282.54-2.063.54-1.192 0-2.148-.397-2.867-1.188-.713-.797-1.07-1.857-1.07-3.18v-.094zm1.898.164c0 .87.18 1.552.539 2.047.36.49.86.735 1.5.735.641 0 1.138-.25 1.492-.75.36-.5.539-1.232.539-2.196 0-.854-.184-1.53-.554-2.03-.365-.5-.862-.75-1.492-.75-.62 0-1.112.247-1.477.741-.365.49-.547 1.224-.547 2.203zm9.352-4.312l.054.883c.594-.693 1.407-1.04 2.438-1.04 1.13 0 1.904.433 2.32 1.297.615-.864 1.479-1.296 2.594-1.296.932 0 1.625.257 2.078.773.458.516.693 1.276.703 2.281V29h-1.898v-5.5c0-.537-.117-.93-.352-1.18-.234-.25-.622-.375-1.164-.375-.432 0-.786.117-1.062.352-.271.229-.461.531-.571.906l.008 5.797h-1.898v-5.563c-.026-.994-.534-1.492-1.524-1.492-.76 0-1.299.31-1.617.93V29h-1.898v-8.453h1.789zm15.859 8.61c-1.203 0-2.18-.378-2.93-1.134-.744-.76-1.117-1.77-1.117-3.03v-.235c0-.844.162-1.596.485-2.258.328-.667.786-1.185 1.375-1.555a3.62 3.62 0 011.968-.554c1.151 0 2.039.367 2.664 1.101.631.735.946 1.774.946 3.117v.766h-5.524c.058.698.289 1.25.696 1.656.411.407.927.61 1.546.61.87 0 1.579-.352 2.126-1.055l1.023.977a3.448 3.448 0 01-1.359 1.18c-.563.275-1.196.413-1.899.413zm-.226-7.243c-.521 0-.943.182-1.266.547-.318.365-.521.872-.609 1.523h3.617v-.14c-.042-.636-.211-1.115-.508-1.438-.297-.328-.708-.492-1.234-.492z"/>
</svg>
